<svg width="124" height="124" viewBox="0 0 124 124" fill="none" xmlns="http://www.w3.org/2000/svg" xmlns:xlink="http://www.w3.org/1999/xlink">
<path d="M122.7,75.994C121.912,75.681 121.012,75.877 120.427,76.49L111.6,85.767L111.6,30.659L111.611,30.659L120.032,21.566C120.807,20.729 120.756,19.42 119.918,18.646C119.918,18.646 119.917,18.645 119.916,18.644L116.885,15.823L121.097,11.276C121.87,10.438 121.818,9.13 120.98,8.356L111.887,-0.065C111.05,-0.84 109.742,-0.79 108.967,0.048L94.273,15.914L22.733,15.914C22.727,10.21 18.104,5.587 12.4,5.581L10.334,5.581C4.629,5.587 0.007,10.21 0,15.914L0,104.781C0,105.922 0.925,106.847 2.067,106.847L33.352,106.847L29.011,112.059C28.282,112.937 28.401,114.24 29.278,114.969L38.808,122.903C39.685,123.634 40.988,123.515 41.719,122.638L41.72,122.637L52.297,109.928C53.028,109.049 53.498,107.981 53.653,106.847L91.522,106.847L79.102,119.89C78.315,120.717 78.349,122.026 79.175,122.812C79.56,123.177 80.069,123.381 80.6,123.38L121.933,123.38C123.075,123.38 124,122.455 124,121.314L124,77.914C124,77.069 123.485,76.308 122.7,75.994ZM115.595,20.254L111.6,24.575L111.6,21.536L114.08,18.849L115.595,20.254ZM107.467,19.886L107.467,19.915L89.989,38.805L83.919,33.189L104.974,10.435L111.044,16.051L107.492,19.886L107.467,19.886ZM86.019,40.759L81.265,42.146L82.28,37.298L86.019,40.759ZM110.59,4.368L116.657,9.981L113.849,13.02L107.781,7.402L110.59,4.368ZM10.334,9.714L12.4,9.714C15.825,9.714 18.6,12.49 18.6,15.914L18.6,94.501C16.822,93.133 14.643,92.388 12.4,92.38L10.334,92.38C8.09,92.388 5.912,93.133 4.133,94.501L4.133,15.914C4.133,12.49 6.909,9.714 10.334,9.714ZM10.334,96.514L12.4,96.514C15.825,96.514 18.6,99.29 18.6,102.714L4.133,102.714C4.133,99.29 6.909,96.514 10.334,96.514ZM49.122,107.285L47.8,108.873L41.447,103.584L42.768,101.995C43.498,101.118 44.801,100.999 45.678,101.729C45.679,101.729 45.679,101.73 45.68,101.73L48.856,104.368C49.734,105.097 49.854,106.4 49.124,107.278C49.123,107.279 49.123,107.279 49.122,107.28L49.122,107.285ZM39.866,118.404L33.513,113.116L38.802,106.76L45.155,112.05L39.866,118.404ZM52.785,102.714C52.441,102.142 52.007,101.63 51.499,101.197L48.323,98.554C45.691,96.363 41.782,96.72 39.591,99.352L36.787,102.714L22.733,102.714L22.733,20.048L90.449,20.048L79.482,31.9C79.325,32.077 79.2,32.281 79.114,32.501C79.089,32.561 79.07,32.617 79.05,32.679C79.03,32.741 78.999,32.803 78.983,32.869L76.516,44.666C76.283,45.783 77,46.877 78.118,47.11C78.45,47.179 78.793,47.166 79.118,47.071L90.692,43.699C90.746,43.682 90.791,43.65 90.842,43.632C90.894,43.614 90.948,43.587 91.004,43.56C91.236,43.455 91.446,43.306 91.624,43.124L107.467,26.001L107.467,90.107L95.46,102.714L52.785,102.714ZM119.867,119.247L85.421,119.247L119.867,83.081L119.867,119.247Z" fill="#DDA046"/>
<path d="M97.29,113.839C97.61,114.611 98.364,115.114 99.2,115.114L113.666,115.114C114.808,115.114 115.733,114.189 115.733,113.048L115.733,98.581C115.733,97.439 114.807,96.515 113.666,96.515C113.118,96.515 112.592,96.732 112.205,97.12L97.738,111.586C97.147,112.177 96.97,113.067 97.29,113.839ZM111.6,103.569L111.6,110.981L104.189,110.981L111.6,103.569Z" fill="#DDA046"/>
<path d="M90.933,77.915L76.467,77.915L76.467,55.181C76.464,54.632 76.246,54.106 75.859,53.718L63.459,41.318C62.652,40.511 61.343,40.511 60.536,41.318L48.137,53.718C47.752,54.107 47.535,54.633 47.533,55.181L47.533,77.915L33.067,77.915C31.925,77.915 31,78.84 31,79.981C31,81.123 31.925,82.048 33.067,82.048L90.934,82.048C92.075,82.048 93,81.123 93,79.981C93,78.84 92.075,77.915 90.933,77.915ZM62,45.703L69.411,53.114L54.589,53.114L62,45.703ZM51.666,57.247L72.334,57.247L72.334,77.915L51.666,77.915L51.666,57.247Z" fill="#DDA046"/>
<rect  x="59.933" y="32.448" width="4.134" height="4.133" fill="#DDA046"/>
<rect  x="59.933" y="86.181" width="4.134" height="4.133" fill="#DDA046"/>
</svg>
