<svg width="30" height="51" viewBox="0 0 30 51" fill="none" xmlns="http://www.w3.org/2000/svg">
<path d="M29.1787 17.8504L16.667 1.16812C15.8808 0.117137 14.1166 0.117137 13.3306 1.16812L0.818849 17.8504C0.345457 18.4823 0.270387 19.3268 0.622865 20.0337C0.977396 20.7406 1.69682 21.1868 2.48711 21.1868H8.74296V29.528C8.74296 30.679 9.67508 31.6132 10.8282 31.6132H19.1693C20.3224 31.6132 21.2546 30.679 21.2546 29.528V21.1868H27.5104C28.3007 21.1868 29.0223 20.7406 29.3767 20.0337C29.7292 19.3268 29.6541 18.4823 29.1787 17.8504Z" fill="url(#paint0_linear_0_1)"/>
<path d="M19.17 33.6978H10.8289C9.67577 33.6978 8.74365 34.6299 8.74365 35.783C8.74365 36.9361 9.67577 37.8683 10.8289 37.8683H19.17C20.3231 37.8683 21.2553 36.9361 21.2553 35.783C21.2553 34.6299 20.3231 33.6978 19.17 33.6978Z" fill="url(#paint1_linear_0_1)"/>
<path d="M19.17 39.9536H10.8289C9.67577 39.9536 8.74365 40.8857 8.74365 42.0389C8.74365 43.192 9.67577 44.1241 10.8289 44.1241H19.17C20.3231 44.1241 21.2553 43.192 21.2553 42.0389C21.2553 40.8857 20.3231 39.9536 19.17 39.9536Z" fill="url(#paint2_linear_0_1)"/>
<path d="M19.17 46.2095H10.8289C9.67577 46.2095 8.74365 47.1416 8.74365 48.2947C8.74365 49.4479 9.67577 50.38 10.8289 50.38H19.17C20.3231 50.38 21.2553 49.4479 21.2553 48.2947C21.2553 47.1416 20.3231 46.2095 19.17 46.2095Z" fill="url(#paint3_linear_0_1)"/>
<defs>
<linearGradient id="paint0_linear_0_1" x1="14.9997" y1="0.379883" x2="14.9997" y2="31.6132" gradientUnits="userSpaceOnUse">
<stop stop-color="#FFDC83"/>
<stop offset="0.25" stop-color="#FBD26A"/>
<stop offset="0.848958" stop-color="#C17024"/>
<stop offset="1" stop-color="#E3A548"/>
</linearGradient>
<linearGradient id="paint1_linear_0_1" x1="14.9995" y1="33.6978" x2="14.9995" y2="37.8683" gradientUnits="userSpaceOnUse">
<stop stop-color="#FFDC83"/>
<stop offset="0.25" stop-color="#FBD26A"/>
<stop offset="0.848958" stop-color="#C17024"/>
<stop offset="1" stop-color="#E3A548"/>
</linearGradient>
<linearGradient id="paint2_linear_0_1" x1="14.9995" y1="39.9536" x2="14.9995" y2="44.1241" gradientUnits="userSpaceOnUse">
<stop stop-color="#FFDC83"/>
<stop offset="0.25" stop-color="#FBD26A"/>
<stop offset="0.848958" stop-color="#C17024"/>
<stop offset="1" stop-color="#E3A548"/>
</linearGradient>
<linearGradient id="paint3_linear_0_1" x1="14.9995" y1="46.2095" x2="14.9995" y2="50.38" gradientUnits="userSpaceOnUse">
<stop stop-color="#FFDC83"/>
<stop offset="0.25" stop-color="#FBD26A"/>
<stop offset="0.848958" stop-color="#C17024"/>
<stop offset="1" stop-color="#E3A548"/>
</linearGradient>
</defs>
</svg>
