<svg width="112" height="112" viewBox="0 0 112 112" fill="none" xmlns="http://www.w3.org/2000/svg" xmlns:xlink="http://www.w3.org/1999/xlink">
<path d="M101.062,9.01L90.635,9.01L90.635,5.948C90.635,2.329 87.691,-0.615 84.073,-0.615C80.454,-0.615 77.51,2.329 77.51,5.948L77.51,9.01L40.76,9.01L40.76,5.948C40.76,2.329 37.816,-0.615 34.198,-0.615C30.579,-0.615 27.635,2.329 27.635,5.948L27.635,9.091C27.449,9.04 27.254,9.01 27.052,9.01L18.336,9.01C12.305,9.01 7.399,13.917 7.399,19.948L7.399,57.208C7.399,58.416 8.378,59.396 9.586,59.396C10.794,59.396 11.774,58.416 11.774,57.208L11.774,31.541L90.635,31.541C91.843,31.541 92.823,30.562 92.823,29.354C92.823,28.146 91.843,27.166 90.635,27.166L11.774,27.166L11.774,19.948C11.774,16.329 14.718,13.385 18.336,13.385L27.052,13.385C27.254,13.385 27.449,13.356 27.635,13.304L27.635,16.12C27.635,19.738 30.579,22.682 34.198,22.682C37.816,22.682 40.76,19.738 40.76,16.12L40.76,13.385L77.51,13.385L77.51,16.12C77.51,19.738 80.454,22.682 84.073,22.682C87.691,22.682 90.635,19.738 90.635,16.12L90.635,13.385L101.062,13.385C104.681,13.385 107.625,16.329 107.625,19.948L107.625,103.071C107.625,105.243 105.858,107.01 103.686,107.01C101.514,107.01 99.747,105.243 99.747,103.071L99.747,97.413C99.747,96.204 98.768,95.225 97.56,95.225L72.115,95.225C70.907,95.225 69.927,96.204 69.927,97.413C69.927,98.621 70.907,99.6 72.115,99.6L95.372,99.6L95.372,103.071C95.372,104.496 95.733,105.837 96.367,107.01L8.313,107.01C6.141,107.01 4.375,105.244 4.375,103.073L4.375,99.6L53.337,99.6C54.545,99.6 55.524,98.621 55.524,97.413C55.524,96.204 54.545,95.225 53.337,95.225L31.48,95.225C35.303,91.933 37.73,87.064 37.73,81.635C37.73,71.744 29.683,63.698 19.792,63.698C9.901,63.698 1.855,71.744 1.855,81.635C1.855,87.064 4.282,91.933 8.104,95.225L2.188,95.225C0.98,95.225 0,96.204 0,97.413L0,103.073C0,107.656 3.729,111.385 8.313,111.385L103.686,111.385C108.27,111.385 112,107.656 112,103.071L112,19.948C112,13.917 107.093,9.01 101.062,9.01ZM36.385,16.12C36.385,17.326 35.404,18.307 34.198,18.307C32.992,18.307 32.01,17.326 32.01,16.12L32.01,5.948C32.01,4.742 32.992,3.76 34.198,3.76C35.404,3.76 36.385,4.742 36.385,5.948L36.385,16.12ZM86.26,16.12C86.26,17.326 85.279,18.307 84.073,18.307C82.867,18.307 81.885,17.326 81.885,16.12L81.885,5.948C81.885,4.742 82.867,3.76 84.073,3.76C85.279,3.76 86.26,4.742 86.26,5.948L86.26,16.12ZM6.23,81.635C6.23,74.157 12.314,68.073 19.792,68.073C27.271,68.073 33.355,74.157 33.355,81.635C33.355,89.114 27.271,95.198 19.792,95.198C12.314,95.198 6.23,89.114 6.23,81.635Z" fill="#DDA046"/>
<path d="M102.443,27.807C102.036,27.401 101.472,27.167 100.896,27.167C100.321,27.167 99.757,27.401 99.35,27.807C98.943,28.214 98.709,28.779 98.709,29.354C98.709,29.929 98.943,30.494 99.35,30.901C99.757,31.307 100.321,31.542 100.896,31.542C101.472,31.542 102.036,31.307 102.443,30.901C102.85,30.494 103.084,29.929 103.084,29.354C103.084,28.779 102.85,28.214 102.443,27.807Z" fill="#DDA046"/>
<path d="M65.33,95.865C64.923,95.458 64.359,95.226 63.783,95.226C63.208,95.226 62.644,95.458 62.237,95.865C61.83,96.274 61.596,96.836 61.596,97.411C61.596,97.989 61.83,98.551 62.237,98.96C62.644,99.367 63.208,99.599 63.783,99.599C64.359,99.599 64.923,99.367 65.33,98.96C65.736,98.551 65.971,97.987 65.971,97.411C65.971,96.836 65.737,96.274 65.33,95.865Z" fill="#DDA046"/>
<path d="M49.491,65.885C44.908,65.885 41.179,69.614 41.179,74.198C41.179,78.781 44.908,82.51 49.491,82.51C54.075,82.51 57.804,78.781 57.804,74.198C57.804,69.614 54.075,65.885 49.491,65.885ZM49.491,78.135C47.32,78.135 45.554,76.369 45.554,74.198C45.554,72.027 47.32,70.26 49.491,70.26C51.662,70.26 53.429,72.027 53.429,74.198C53.429,76.369 51.662,78.135 49.491,78.135Z" fill="#DDA046"/>
<path d="M69.907,65.885C65.324,65.885 61.595,69.614 61.595,74.198C61.595,78.781 65.324,82.51 69.907,82.51C74.491,82.51 78.22,78.781 78.22,74.198C78.22,69.614 74.491,65.885 69.907,65.885ZM69.907,78.135C67.736,78.135 65.97,76.369 65.97,74.198C65.97,72.027 67.736,70.26 69.907,70.26C72.078,70.26 73.845,72.027 73.845,74.198C73.845,76.369 72.078,78.135 69.907,78.135Z" fill="#DDA046"/>
<path d="M90.324,65.885C85.741,65.885 82.012,69.614 82.012,74.198C82.012,78.781 85.741,82.51 90.324,82.51C94.908,82.51 98.637,78.781 98.637,74.198C98.637,69.614 94.908,65.885 90.324,65.885ZM90.324,78.135C88.153,78.135 86.387,76.369 86.387,74.198C86.387,72.027 88.153,70.26 90.324,70.26C92.495,70.26 94.262,72.027 94.262,74.198C94.262,76.369 92.495,78.135 90.324,78.135Z" fill="#DDA046"/>
<path d="M29.074,43.135C24.491,43.135 20.762,46.864 20.762,51.448C20.762,56.031 24.491,59.76 29.074,59.76C33.658,59.76 37.387,56.031 37.387,51.448C37.387,46.864 33.658,43.135 29.074,43.135ZM29.074,55.385C26.903,55.385 25.137,53.619 25.137,51.448C25.137,49.277 26.903,47.51 29.074,47.51C31.245,47.51 33.012,49.277 33.012,51.448C33.012,53.619 31.245,55.385 29.074,55.385Z" fill="#DDA046"/>
<path d="M69.907,43.135C65.324,43.135 61.595,46.864 61.595,51.448C61.595,56.031 65.324,59.76 69.907,59.76C74.491,59.76 78.22,56.031 78.22,51.448C78.22,46.864 74.491,43.135 69.907,43.135ZM69.907,55.385C67.736,55.385 65.97,53.619 65.97,51.448C65.97,49.277 67.736,47.51 69.907,47.51C72.078,47.51 73.845,49.277 73.845,51.448C73.845,53.619 72.078,55.385 69.907,55.385Z" fill="#DDA046"/>
<path d="M90.324,43.135C85.741,43.135 82.012,46.864 82.012,51.448C82.012,56.031 85.741,59.76 90.324,59.76C94.908,59.76 98.637,56.031 98.637,51.448C98.637,46.864 94.908,43.135 90.324,43.135ZM90.324,55.385C88.153,55.385 86.387,53.619 86.387,51.448C86.387,49.277 88.153,47.51 90.324,47.51C92.495,47.51 94.262,49.277 94.262,51.448C94.262,53.619 92.495,55.385 90.324,55.385Z" fill="#DDA046"/>
<path d="M49.491,43.135C44.908,43.135 41.179,46.864 41.179,51.448C41.179,56.031 44.908,59.76 49.491,59.76C54.075,59.76 57.804,56.031 57.804,51.448C57.804,46.864 54.075,43.135 49.491,43.135ZM49.491,55.385C47.32,55.385 45.554,53.619 45.554,51.448C45.554,49.277 47.32,47.51 49.491,47.51C51.662,47.51 53.429,49.277 53.429,51.448C53.429,53.619 51.662,55.385 49.491,55.385Z" fill="#DDA046"/>
<path d="M27.586,76.304C26.731,75.45 25.347,75.45 24.492,76.304L17.368,83.428L14.934,80.994C14.079,80.14 12.695,80.14 11.84,80.994C10.986,81.848 10.986,83.233 11.84,84.088L15.821,88.069C16.232,88.479 16.788,88.709 17.368,88.709C17.948,88.709 18.505,88.479 18.915,88.069L27.586,79.398C28.44,78.544 28.44,77.158 27.586,76.304Z" fill="#DDA046"/>
</svg>
