<svg width="40" height="38" viewBox="0 0 40 38" fill="none" xmlns="http://www.w3.org/2000/svg" xmlns:xlink="http://www.w3.org/1999/xlink">
<path d="M39.969,13.437C39.969,13.377 39.956,13.286 39.933,13.234C39.871,13.011 39.734,12.807 39.53,12.665L33.804,8.685L33.804,4.418C33.804,3.852 33.345,3.394 32.78,3.394L26.192,3.394L20.587,-0.503C20.237,-0.747 19.772,-0.748 19.42,-0.505L13.779,3.394L7.221,3.394C6.655,3.394 6.196,3.852 6.196,4.418L6.196,8.635L0.443,12.611C0.16,12.807 0.006,13.12 0.002,13.439C0.001,13.445 0,13.451 0,13.457L0.031,35.663C0.031,35.935 0.139,36.195 0.331,36.387C0.524,36.579 0.784,36.686 1.055,36.686C1.055,36.686 1.056,36.686 1.056,36.686L38.977,36.634C39.543,36.633 40.001,36.174 40,35.608L39.969,13.437ZM33.804,11.18L37.077,13.455L33.804,15.731L33.804,11.18ZM20.001,1.585L22.604,3.394L17.384,3.394L20.001,1.585ZM8.245,5.442L31.755,5.442L31.755,17.155L23.862,22.643L20.643,20.146C20.638,20.142 20.634,20.14 20.629,20.136C20.27,19.867 19.761,19.857 19.388,20.146L16.146,22.661L8.245,17.2L8.245,5.442L8.245,5.442ZM6.196,11.125L6.196,15.784L2.826,13.455L6.196,11.125ZM2.051,15.411L14.447,23.978L2.076,33.574L2.051,15.411ZM4.053,34.633L20.016,22.252L35.921,34.589L4.053,34.633ZM25.558,23.958L37.923,15.362L37.948,33.57L25.558,23.958Z" fill="#DDA046"/>
<path d="M26.935,9.54L13.065,9.54C12.5,9.54 12.041,9.999 12.041,10.564C12.041,11.13 12.5,11.589 13.065,11.589L26.935,11.589C27.501,11.589 27.96,11.13 27.96,10.564C27.96,9.999 27.501,9.54 26.935,9.54Z" fill="#DDA046"/>
<path d="M26.935,14.867L13.065,14.867C12.5,14.867 12.041,15.325 12.041,15.891C12.041,16.457 12.5,16.915 13.065,16.915L26.935,16.915C27.501,16.915 27.96,16.457 27.96,15.891C27.96,15.325 27.501,14.867 26.935,14.867Z" fill="#DDA046"/>
</svg>
