<svg width="108" height="108" viewBox="0 0 108 108" fill="none" xmlns="http://www.w3.org/2000/svg" xmlns:xlink="http://www.w3.org/1999/xlink">
<path d="M102.6,64.187L86.4,64.187L86.4,37.187L102.6,37.187C103.594,37.187 104.4,36.381 104.4,35.387L104.4,26.513L107.982,1.443C108.123,0.459 107.44,-0.453 106.455,-0.595C106.371,-0.607 106.285,-0.613 106.2,-0.613L55.8,-0.613C54.806,-0.613 54,0.193 54,1.187C54,1.273 54.006,1.358 54.018,1.443L57.6,26.513L57.6,35.387C57.6,36.381 58.406,37.187 59.4,37.187L75.6,37.187L75.6,64.187L73.8,64.187C70.817,64.187 68.4,66.605 68.4,69.587C68.4,72.569 70.817,74.987 73.8,74.987L75.6,74.987L75.6,78.587L63,78.587L64.679,53.387L66.6,53.387C67.594,53.387 68.4,52.581 68.4,51.587L68.4,44.387C68.4,43.393 67.594,42.587 66.6,42.587L53.865,42.587C53.296,38.686 50.937,35.276 47.489,33.366C50.343,27.019 47.512,19.561 41.165,16.707C34.818,13.853 27.36,16.684 24.506,23.031C24.011,24.132 23.676,25.299 23.513,26.495C13.646,25.428 4.781,32.562 3.714,42.429C3.708,42.482 3.702,42.535 3.697,42.587L1.8,42.587C0.806,42.587 0,43.393 0,44.387L0,51.587C0,52.581 0.806,53.387 1.8,53.387L3.717,53.387L7.2,105.706C7.263,106.653 8.05,107.389 9,107.387L106.2,107.387C107.194,107.387 108,106.581 108,105.587L108,69.587C108,66.605 105.582,64.187 102.6,64.187ZM57.875,2.987L64.8,2.987L64.8,13.787L68.4,13.787L68.4,2.987L72,2.987L72,6.587L75.6,6.587L75.6,2.987L86.4,2.987L86.4,8.387L90,8.387L90,2.987L93.6,2.987L93.6,13.787L97.2,13.787L97.2,2.987L104.124,2.987L101.039,24.587L60.96,24.587L57.875,2.987ZM61.2,33.587L61.2,28.187L100.8,28.187L100.8,33.587L61.2,33.587ZM82.8,37.187L82.8,64.187L79.2,64.187L79.2,37.187L82.8,37.187ZM64.8,46.187L64.8,49.787L37.8,49.787L37.8,46.187L64.8,46.187ZM23.347,30.1C23.841,30.162 24.333,30.249 24.818,30.361C24.838,30.361 24.858,30.361 24.878,30.361C26.989,30.858 28.962,31.823 30.65,33.186L32.915,30.387C31.182,28.998 29.209,27.94 27.093,27.265C27.61,22.335 32.026,18.757 36.957,19.274C41.888,19.79 45.466,24.206 44.949,29.137C44.796,30.593 44.29,31.99 43.474,33.205C42.921,34.031 43.142,35.149 43.968,35.702C44.094,35.787 44.231,35.855 44.374,35.905C47.352,36.957 49.561,39.493 50.195,42.587L36,42.587C35.006,42.587 34.2,43.393 34.2,44.387L34.2,60.587C34.2,61.581 33.394,62.387 32.4,62.387C31.406,62.387 30.6,61.581 30.6,60.587L30.6,56.987C30.6,54.005 28.182,51.587 25.2,51.587C22.218,51.587 19.8,54.005 19.8,56.987L19.8,69.587C19.8,70.581 18.994,71.387 18,71.387C17.006,71.387 16.2,70.581 16.2,69.587L16.2,44.387C16.2,43.393 15.394,42.587 14.4,42.587L7.321,42.587C8.298,34.713 15.473,29.123 23.347,30.1ZM3.6,49.787L3.6,46.187L12.6,46.187L12.6,49.787L3.6,49.787ZM50.4,83.987L50.4,103.787L10.685,103.787L7.324,53.387L12.6,53.387L12.6,69.587C12.6,72.569 15.018,74.987 18,74.987C20.982,74.987 23.4,72.569 23.4,69.587L23.4,56.987C23.4,55.993 24.206,55.187 25.2,55.187C26.194,55.187 27,55.993 27,56.987L27,60.587C27,63.569 29.418,65.987 32.4,65.987C35.382,65.987 37.8,63.569 37.8,60.587L37.8,53.387L61.076,53.387L59.4,78.587L55.8,78.587C52.817,78.587 50.4,81.004 50.4,83.987ZM104.4,103.787L99,103.787L99,94.787L95.4,94.787L95.4,103.787L90,103.787L90,94.787L86.4,94.787L86.4,103.787L81,103.787L81,94.787L77.4,94.787L77.4,103.787L72,103.787L72,94.787L68.4,94.787L68.4,103.787L63,103.787L63,94.787L59.4,94.787L59.4,103.787L54,103.787L54,89.387L104.4,89.387L104.4,103.787ZM104.4,85.787L54,85.787L54,83.987C54,82.993 54.806,82.187 55.8,82.187L95.4,82.187C98.382,82.187 100.8,79.769 100.8,76.787C100.8,73.805 98.382,71.387 95.4,71.387L73.8,71.387C72.806,71.387 72,70.581 72,69.587C72,68.593 72.806,67.787 73.8,67.787L102.6,67.787C103.594,67.787 104.4,68.593 104.4,69.587L104.4,85.787ZM79.2,78.587L79.2,74.987L82.8,74.987L82.8,78.587L79.2,78.587ZM86.4,78.587L86.4,74.987L95.4,74.987C96.394,74.987 97.2,75.793 97.2,76.787C97.2,77.781 96.394,78.587 95.4,78.587L86.4,78.587Z" fill="#DDA046"/>
<path d="M7.2,17.385L7.2,13.785L3.6,13.785L3.6,17.385L0,17.385L0,20.985L3.6,20.985L3.6,24.585L7.2,24.585L7.2,20.985L10.8,20.985L10.8,17.385L7.2,17.385Z" fill="#DDA046"/>
<path d="M102.599,49.785L102.599,46.185L98.999,46.185L98.999,49.785L95.399,49.785L95.399,53.385L98.999,53.385L98.999,56.985L102.599,56.985L102.599,53.385L106.199,53.385L106.199,49.785L102.599,49.785Z" fill="#DDA046"/>
<path d="M34.2,2.986L34.2,-0.614L30.6,-0.614L30.6,2.986L27,2.986L27,6.586L30.6,6.586L30.6,10.186L34.2,10.186L34.2,6.586L37.8,6.586L37.8,2.986L34.2,2.986Z" fill="#DDA046"/>
<path d="M68.4,17.385L64.8,17.385L64.8,20.985L68.4,20.985L68.4,17.385Z" fill="#DDA046"/>
</svg>
