<svg width="80" height="80" viewBox="0 0 80 80" fill="none" xmlns="http://www.w3.org/2000/svg" xmlns:xlink="http://www.w3.org/1999/xlink">
<path d="M40,80C62.091,80 80,62.091 80,40C80,17.909 62.091,0 40,0C17.909,0 0,17.909 0,40C0,62.091 17.909,80 40,80Z" fill="#3B5998"/>
<path d="M50.056,41.566L42.918,41.566L42.918,67.714L32.104,67.714L32.104,41.566L26.961,41.566L26.961,32.376L32.104,32.376L32.104,26.429C32.104,22.177 34.124,15.518 43.014,15.518L51.025,15.551L51.025,24.471L45.213,24.471C44.259,24.471 42.919,24.947 42.919,26.976L42.919,32.384L51,32.384L50.056,41.566Z" fill="#FFFFFF"/>
</svg>
