<svg width="40" height="38" viewBox="0 0 40 38" fill="none" xmlns="http://www.w3.org/2000/svg" xmlns:xlink="http://www.w3.org/1999/xlink">
<path d="M39.969,14.244C39.969,14.184 39.956,14.093 39.933,14.041C39.871,13.818 39.734,13.614 39.53,13.472L33.804,9.492L33.804,5.225C33.804,4.659 33.345,4.2 32.78,4.2L26.192,4.2L20.587,0.304C20.237,0.06 19.772,0.059 19.42,0.302L13.779,4.2L7.221,4.2C6.655,4.2 6.196,4.659 6.196,5.225L6.196,9.441L0.443,13.418C0.16,13.614 0.006,13.926 0.002,14.246C0.001,14.252 0,14.258 0,14.264L0.031,36.47C0.031,36.742 0.139,37.002 0.331,37.194C0.524,37.385 0.784,37.493 1.055,37.493C1.055,37.493 1.056,37.493 1.056,37.493L38.977,37.441C39.543,37.44 40.001,36.981 40,36.415L39.969,14.244ZM33.804,11.987L37.077,14.262L33.804,16.537L33.804,11.987ZM20.001,2.391L22.604,4.2L17.384,4.2L20.001,2.391ZM8.245,6.249L31.755,6.249L31.755,17.962L23.862,23.449L20.643,20.953C20.638,20.949 20.634,20.947 20.629,20.943C20.27,20.673 19.761,20.663 19.388,20.953L16.146,23.467L8.245,18.007L8.245,6.249L8.245,6.249ZM6.196,11.932L6.196,16.591L2.826,14.262L6.196,11.932ZM2.051,16.218L14.447,24.785L2.076,34.381L2.051,16.218ZM4.053,35.44L20.016,23.059L35.921,35.396L4.053,35.44ZM25.558,24.765L37.923,16.169L37.948,34.376L25.558,24.765Z" fill="#DDA046"/>
<path d="M26.935,10.347L13.065,10.347C12.5,10.347 12.041,10.805 12.041,11.371C12.041,11.937 12.5,12.395 13.065,12.395L26.935,12.395C27.501,12.395 27.96,11.937 27.96,11.371C27.96,10.805 27.501,10.347 26.935,10.347Z" fill="#DDA046"/>
<path d="M26.935,15.674L13.065,15.674C12.5,15.674 12.041,16.133 12.041,16.698C12.041,17.264 12.5,17.723 13.065,17.723L26.935,17.723C27.501,17.723 27.96,17.264 27.96,16.698C27.96,16.133 27.501,15.674 26.935,15.674Z" fill="#DDA046"/>
</svg>
