<svg width="120" height="120" viewBox="0 0 120 120" fill="none" xmlns="http://www.w3.org/2000/svg" xmlns:xlink="http://www.w3.org/1999/xlink">
<path d="M52.768,88.763C52.768,88.911 52.768,89.095 52.686,89.198C52.133,89.912 51.475,90.507 50.611,90.823C49.861,91.096 49.263,90.762 49.105,89.983C49.042,89.675 49.039,89.351 49.039,89.035C49.037,83.229 49.021,71.324 49.013,71.179L44.729,71.179C44.729,71.34 44.724,87.924 44.734,91.057C44.737,91.905 44.826,92.747 45.179,93.535C45.558,94.388 46.188,94.928 47.125,95.083C47.812,95.202 48.484,95.125 49.137,94.901C50.474,94.441 51.522,93.572 52.447,92.529C52.528,92.437 52.615,92.347 52.77,92.181L52.77,94.783L57.065,94.783L57.065,83.4C57.065,79.455 57.065,71.143 57.065,71.143L52.768,71.153L52.768,88.763L52.768,88.763Z" fill="url(#pf_0_1_427)"/>
<path d="M73.071,73.025C72.166,71.095 70.262,70.584 68.611,70.998C67.61,71.251 66.799,71.827 66.133,72.572C65.912,72.823 65.67,73.307 65.67,73.307C65.67,73.307 65.67,66.179 65.67,62.772L61.367,62.772L61.367,94.778L65.67,94.778L65.67,92.982C65.67,92.982 65.975,93.306 66.086,93.424C67.073,94.496 68.271,95.083 69.748,95.096C71.565,95.115 72.829,94.235 73.403,92.508C73.669,91.705 73.756,90.878 73.759,90.041C73.764,85.567 73.764,81.093 73.756,76.62C73.756,75.382 73.606,74.166 73.071,73.025ZM69.327,89.506C69.327,89.746 69.298,89.988 69.248,90.223C69.051,91.16 68.337,91.581 67.326,91.373C66.712,91.247 66.233,90.894 65.822,90.449C65.804,90.428 65.683,90.265 65.683,90.265L65.683,89.915L65.672,75.704C65.672,75.704 65.765,75.44 65.967,75.264C66.473,74.816 67.031,74.534 67.729,74.603C68.324,74.661 68.798,74.935 69.019,75.485C69.185,75.904 69.317,76.37 69.319,76.817C69.34,81.046 69.332,85.275 69.327,89.506Z" fill="url(#pf_0_1_428)"/>
<path d="M57.6,45.13C58.604,45.13 59.42,44.314 59.42,43.31L59.42,30.474C59.42,29.47 58.603,28.654 57.6,28.654C56.598,28.654 55.781,29.471 55.781,30.474L55.781,43.31C55.781,44.313 56.597,45.13 57.6,45.13Z" fill="url(#pf_0_1_429)"/>
<path d="M44.739,62.774L29.836,62.774L29.836,67.361L34.857,67.361L34.857,94.78L39.708,94.78L39.708,67.351L44.739,67.351L44.739,62.774Z" fill="url(#pf_0_1_430)"/>
<path d="M85.364,86.39L85.364,89.426C85.364,90.487 84.505,91.345 83.447,91.345C82.385,91.345 81.527,90.487 81.527,89.426L81.527,83.519L89.766,83.519C89.766,83.519 89.814,79.399 89.779,77.529C89.766,76.731 89.706,75.923 89.542,75.143C89.116,73.121 88.028,71.597 85.993,70.928C85.395,70.73 84.753,70.628 84.123,70.588C82.03,70.454 80.197,71.052 78.765,72.655C77.509,74.059 77.072,75.749 77.069,77.582C77.061,81.086 77.045,84.594 77.08,88.098C77.09,88.991 77.19,89.902 77.393,90.771C77.83,92.638 78.849,94.105 80.648,94.916C81.962,95.511 83.349,95.54 84.75,95.334C87.009,95.002 88.55,93.791 89.295,91.608C89.856,89.973 89.79,86.39 89.79,86.39L85.364,86.39L85.364,86.39ZM81.527,76.542C81.527,75.483 82.385,74.622 83.447,74.622C84.505,74.622 85.364,75.483 85.364,76.542L85.364,79.857L81.527,79.857L81.527,76.542Z" fill="url(#pf_0_1_431)"/>
<path d="M0,0L0,120L120,120L120,0L0,0ZM67.602,25.012L71.972,25.012L71.972,43.134C71.972,43.374 71.991,43.617 72.033,43.852C72.165,44.599 72.718,44.95 73.437,44.701C74.313,44.398 74.982,43.791 75.55,43.075C75.63,42.973 75.615,42.783 75.615,42.633L75.615,25.012L80.017,25.012L80.016,48.775L75.613,48.775L75.618,46.222C75.131,46.701 74.716,47.149 74.259,47.551C73.45,48.265 72.533,48.796 71.461,49.006C69.814,49.328 68.412,48.807 67.887,47.102C67.712,46.534 67.606,45.922 67.602,45.329L67.602,25.012ZM57.601,24.417C61.083,24.417 63.905,27.24 63.905,30.722L63.905,43.061C63.905,46.543 61.083,49.365 57.601,49.365C54.119,49.365 51.296,46.543 51.296,43.061L51.296,30.722C51.296,27.24 54.118,24.417 57.601,24.417ZM40.641,16.607C40.641,16.607 42.643,25.112 43.599,29.141L43.6,29.141C44.556,25.112 46.559,16.607 46.559,16.607L51.569,16.607C51.569,16.607 47.72,29.374 45.998,35.068C45.936,35.274 45.908,35.498 45.908,35.713L45.91,48.77L41.29,48.77L41.291,35.713C41.291,35.498 41.263,35.274 41.201,35.068C39.48,29.374 35.63,16.607 35.63,16.607L40.641,16.607L40.641,16.607ZM95.735,92.387C95.735,98.228 91.069,102.999 85.232,103.123C68.414,103.483 51.588,103.483 34.768,103.123C28.933,102.999 24.267,98.228 24.267,92.387L24.267,66.119C24.267,60.282 28.933,55.51 34.768,55.387C51.588,55.026 68.414,55.026 85.232,55.387C91.069,55.51 95.735,60.282 95.735,66.119L95.735,92.387Z" fill="url(#pf_0_1_432)"/>
<defs>
<linearGradient id="pf_0_1_427" x1="50.896" y1="71.143" x2="50.896" y2="95.138" gradientUnits="userSpaceOnUse">
<stop stop-color="#E32828"/>
<stop offset="1" stop-color="#AE0000"/>
</linearGradient>
<linearGradient id="pf_0_1_428" x1="67.565" y1="62.772" x2="67.565" y2="95.097" gradientUnits="userSpaceOnUse">
<stop stop-color="#E32828"/>
<stop offset="1" stop-color="#AE0000"/>
</linearGradient>
<linearGradient id="pf_0_1_429" x1="57.6" y1="28.654" x2="57.6" y2="45.13" gradientUnits="userSpaceOnUse">
<stop stop-color="#E32828"/>
<stop offset="1" stop-color="#AE0000"/>
</linearGradient>
<linearGradient id="pf_0_1_430" x1="37.288" y1="62.774" x2="37.288" y2="94.78" gradientUnits="userSpaceOnUse">
<stop stop-color="#E32828"/>
<stop offset="1" stop-color="#AE0000"/>
</linearGradient>
<linearGradient id="pf_0_1_431" x1="83.425" y1="70.57" x2="83.425" y2="95.45" gradientUnits="userSpaceOnUse">
<stop stop-color="#E32828"/>
<stop offset="1" stop-color="#AE0000"/>
</linearGradient>
<linearGradient id="pf_0_1_432" x1="60" y1="0" x2="60" y2="120" gradientUnits="userSpaceOnUse">
<stop stop-color="#E32828"/>
<stop offset="1" stop-color="#AE0000"/>
</linearGradient>
</defs>
</svg>
