<svg width="40" height="38" viewBox="0 0 40 38" fill="none" xmlns="http://www.w3.org/2000/svg" xmlns:xlink="http://www.w3.org/1999/xlink">
<path d="M39.057,7.655C25.485,4.958 26.364,5.099 26.056,5.15C25.958,5.167 24.753,5.409 21.946,5.97C20.769,2.576 17.54,0.133 13.75,0.133C9.957,0.133 6.725,2.581 5.551,5.98L1.4,5.155C0.677,5.012 0,5.565 0,6.305L0,33.805C0,34.364 0.395,34.845 0.943,34.954C14.4,37.629 13.519,37.456 13.609,37.467C13.891,37.502 13.017,37.646 26.251,35L38.6,37.454C39.324,37.598 40,37.044 40,36.305L40,8.805C40,8.246 39.605,7.764 39.057,7.655L39.057,7.655ZM13.75,2.477C17.239,2.477 20.078,5.315 20.078,8.805C20.078,11.749 15.367,19.222 13.75,21.694C12.134,19.224 7.422,11.749 7.422,8.805C7.422,5.315 10.261,2.477 13.75,2.477L13.75,2.477ZM2.344,7.732L5.095,8.279C5.084,8.453 5.078,8.628 5.078,8.805C5.078,10.759 6.356,13.912 8.986,18.446C10.522,21.093 12.036,23.366 12.578,24.166L12.578,34.877L2.344,32.843L2.344,7.732ZM14.922,24.166C15.464,23.366 16.978,21.093 18.514,18.446C21.144,13.912 22.422,10.759 22.422,8.805C22.422,8.625 22.416,8.446 22.405,8.269L25.078,7.734L25.078,32.844L14.922,34.875L14.922,24.166ZM37.656,34.877L27.422,32.843L27.422,7.732L37.656,9.766L37.656,34.877Z" fill="#DDA046"/>
<path d="M13.75,12.477C15.775,12.477 17.422,10.829 17.422,8.805C17.422,6.78 15.775,5.133 13.75,5.133C11.725,5.133 10.078,6.78 10.078,8.805C10.078,10.829 11.725,12.477 13.75,12.477ZM13.75,7.477C14.482,7.477 15.078,8.072 15.078,8.805C15.078,9.537 14.482,10.133 13.75,10.133C13.018,10.133 12.422,9.537 12.422,8.805C12.422,8.072 13.018,7.477 13.75,7.477Z" fill="#DDA046"/>
</svg>
