<svg width="112" height="112" viewBox="0 0 112 112" fill="none" xmlns="http://www.w3.org/2000/svg" xmlns:xlink="http://www.w3.org/1999/xlink">
<path d="M101.062,30.883L98.703,30.883L67.848,0.027C66.993,-0.828 65.608,-0.828 64.754,0.027L56.849,7.932L25.235,-0.539C24.068,-0.852 22.868,-0.16 22.555,1.007L14.551,30.883L9.189,30.883C4.123,30.883 0.002,35.004 0.002,40.07C0.002,40.191 0.007,40.312 0.011,40.432C0.006,40.492 0.002,40.553 0.002,40.614L0.002,100.448C0.002,106.479 4.909,111.385 10.939,111.385L89.249,111.385C89.283,111.385 89.317,111.383 89.35,111.383L101.061,111.383C107.092,111.383 111.998,106.476 111.998,100.445L111.998,41.82C111.999,35.789 107.092,30.883 101.062,30.883ZM99.107,35.257L101.062,35.257C104.68,35.257 107.624,38.201 107.624,41.82L107.624,59.351C107.624,62.21 105.298,64.535 102.439,64.535L100.187,64.535L100.187,55.819C100.187,49.865 95.403,45.01 89.477,44.888L99.107,35.257ZM59.05,11.918C59.05,11.918 59.05,11.917 59.05,11.917L66.301,4.667L94.906,33.272L83.367,44.811L79.365,44.811L84.599,39.577C85.454,38.722 85.454,37.337 84.599,36.483C82.829,34.712 82.829,31.831 84.599,30.06C85.454,29.206 85.454,27.821 84.599,26.967L72.606,14.973C71.752,14.119 70.366,14.119 69.512,14.973C67.741,16.744 64.86,16.744 63.09,14.973C62.235,14.119 60.85,14.119 59.996,14.973L30.158,44.811L26.157,44.811L59.05,11.918ZM52.612,36.593C47.619,36.593 43.435,40.119 42.414,44.811L36.345,44.811L61.735,19.422C64.537,21.092 68.065,21.092 70.867,19.422L80.151,28.706C78.481,31.508 78.481,35.036 80.151,37.838L73.178,44.811L62.81,44.811C61.79,40.119 57.606,36.593 52.612,36.593ZM58.253,44.811L46.972,44.811C47.86,42.563 50.053,40.968 52.613,40.968C55.172,40.968 57.365,42.563 58.253,44.811ZM23.845,40.936L29.638,19.316C31.226,19.342 32.806,18.936 34.221,18.119C35.636,17.302 36.775,16.14 37.55,14.748L47.395,17.386L33.108,31.673L23.845,40.936ZM26.215,4.252L53.277,11.504L50.967,13.814L36.829,10.026C36.268,9.875 35.671,9.954 35.169,10.244C34.667,10.534 34.3,11.012 34.15,11.573C33.836,12.744 33.084,13.723 32.034,14.33C30.983,14.937 29.759,15.098 28.588,14.784C27.421,14.471 26.221,15.164 25.909,16.331L18.258,44.882L15.328,44.882L26.215,4.252ZM9.189,35.257L13.378,35.257L10.799,44.882L9.189,44.882C6.535,44.882 4.377,42.723 4.377,40.07C4.377,37.416 6.536,35.257 9.189,35.257ZM107.624,100.445C107.624,104.064 104.68,107.008 101.062,107.008L97.995,107.008C99.37,105.179 100.187,102.907 100.187,100.448L100.187,91.66L101.499,91.66C103.784,91.66 105.898,90.924 107.624,89.68L107.624,100.445ZM107.624,81.16C107.624,84.537 104.876,87.285 101.499,87.285L55.563,87.285C50.497,87.285 46.376,83.164 46.376,78.098C46.376,73.031 50.497,68.91 55.563,68.91L62.192,68.91C63.401,68.91 64.38,67.931 64.38,66.723C64.38,65.515 63.401,64.535 62.192,64.535L55.563,64.535C48.085,64.535 42.001,70.619 42.001,78.097C42.001,85.575 48.085,91.659 55.563,91.659L95.812,91.659L95.812,100.448C95.812,104.033 92.922,106.956 89.351,107.01L14.877,107.01L14.877,82.377C14.877,81.169 13.897,80.189 12.689,80.189C11.481,80.189 10.502,81.169 10.502,82.377L10.502,106.994C7.086,106.768 4.377,103.919 4.377,100.448L4.377,47.891C5.777,48.756 7.426,49.257 9.189,49.257L89.249,49.257C92.868,49.257 95.811,52.201 95.811,55.819L95.811,64.535L79.995,64.535C78.787,64.535 77.808,65.515 77.808,66.723C77.808,67.931 78.787,68.91 79.995,68.91L102.439,68.91C104.35,68.91 106.129,68.345 107.624,67.376L107.624,81.16Z" fill="#DDA046"/>
<path d="M14.235,72.299C13.828,71.892 13.264,71.658 12.688,71.658C12.113,71.658 11.549,71.892 11.142,72.299C10.735,72.706 10.501,73.27 10.501,73.845C10.501,74.421 10.735,74.985 11.142,75.392C11.549,75.799 12.113,76.033 12.688,76.033C13.264,76.033 13.828,75.799 14.235,75.392C14.642,74.985 14.876,74.421 14.876,73.845C14.876,73.27 14.642,72.706 14.235,72.299Z" fill="#DDA046"/>
</svg>
