<svg width="40" height="40" viewBox="0 0 40 40" fill="none" xmlns="http://www.w3.org/2000/svg" xmlns:xlink="http://www.w3.org/1999/xlink">
<path d="M27.766,38.94L27.284,38.94C24.742,38.726 22.268,38.026 20.005,36.878C15.119,34.565 10.791,31.27 7.308,27.21C4.657,24.225 2.559,20.813 1.11,17.128L1.11,17.128C0.308,15.253 -0.067,13.231 0.01,11.201C0.097,9.771 0.741,8.427 1.81,7.441C2.366,6.93 2.903,6.407 3.434,5.884C3.846,5.476 4.228,5.135 4.615,4.764C4.978,4.377 5.419,4.068 5.911,3.856C6.403,3.644 6.936,3.535 7.474,3.535C8.012,3.535 8.544,3.644 9.036,3.856C9.528,4.068 9.97,4.377 10.332,4.764C11.088,5.488 11.838,6.224 12.588,6.967L13.263,7.624L14.763,9.09C15.176,9.445 15.507,9.881 15.734,10.37C15.961,10.859 16.078,11.389 16.078,11.926C16.078,12.462 15.961,12.992 15.734,13.481C15.507,13.97 15.176,14.406 14.763,14.761L14.081,15.424C13.488,16.002 12.9,16.58 12.301,17.152C12.871,18.313 13.591,19.399 14.444,20.383C16.304,22.688 18.544,24.676 21.073,26.267C21.367,26.443 21.698,26.607 22.061,26.778L22.392,26.936C23.204,26.127 24.029,25.33 24.854,24.532C25.216,24.14 25.659,23.827 26.153,23.612C26.648,23.398 27.183,23.287 27.725,23.287C28.266,23.287 28.802,23.398 29.297,23.612C29.791,23.827 30.234,24.14 30.596,24.532C32.092,25.972 33.579,27.421 35.057,28.877C35.463,29.233 35.787,29.668 36.009,30.154C36.231,30.639 36.346,31.165 36.346,31.697C36.346,32.229 36.231,32.754 36.009,33.24C35.787,33.726 35.463,34.161 35.057,34.517C34.77,34.797 34.476,35.077 34.183,35.357C33.614,35.898 33.07,36.409 32.577,36.957C31.973,37.611 31.23,38.128 30.398,38.47C29.567,38.813 28.668,38.974 27.766,38.94L27.766,38.94ZM3.453,16.282C4.803,19.705 6.755,22.874 9.22,25.646C12.478,29.44 16.524,32.519 21.092,34.681C23.052,35.704 25.206,36.325 27.422,36.507C28.029,36.577 28.644,36.503 29.216,36.291C29.787,36.079 30.297,35.735 30.702,35.29C31.258,34.681 31.852,34.115 32.433,33.568C32.714,33.3 32.995,33.032 33.277,32.759C33.454,32.63 33.598,32.463 33.697,32.271C33.796,32.078 33.847,31.866 33.847,31.651C33.847,31.436 33.796,31.224 33.697,31.032C33.598,30.84 33.454,30.672 33.277,30.544C31.802,29.092 30.319,27.648 28.828,26.212C28.698,26.048 28.532,25.915 28.341,25.823C28.15,25.732 27.941,25.684 27.728,25.684C27.516,25.684 27.306,25.732 27.115,25.823C26.924,25.915 26.758,26.048 26.628,26.212C25.691,27.118 24.754,28.001 23.885,28.901C23.612,29.208 23.237,29.412 22.825,29.479C22.413,29.546 21.99,29.47 21.63,29.266C21.405,29.144 21.173,29.035 20.948,28.932C20.555,28.743 20.149,28.548 19.749,28.323C16.986,26.589 14.539,24.42 12.507,21.904C11.412,20.645 10.513,19.237 9.839,17.724C9.671,17.384 9.621,17.001 9.697,16.631C9.772,16.261 9.969,15.925 10.257,15.674C10.951,15.022 11.632,14.359 12.307,13.69L12.988,13.021C13.769,12.254 13.769,11.56 12.988,10.776L11.501,9.321L10.82,8.658C10.076,7.922 9.333,7.192 8.583,6.48C8.452,6.316 8.284,6.183 8.093,6.091C7.901,6 7.69,5.952 7.477,5.952C7.263,5.952 7.053,6 6.861,6.091C6.669,6.183 6.502,6.316 6.371,6.48C5.983,6.845 5.615,7.21 5.24,7.575C4.69,8.117 4.134,8.658 3.565,9.181C2.928,9.751 2.549,10.543 2.509,11.384C2.461,13.052 2.776,14.711 3.434,16.252L3.453,16.282ZM40,19.355L37.501,19.355C37.494,14.869 35.661,10.569 32.404,7.397C29.146,4.225 24.73,2.44 20.124,2.434L20.124,0C25.393,0.006 30.445,2.048 34.171,5.676C37.897,9.304 39.993,14.223 40,19.355L40,19.355ZM33.345,19.355L30.846,19.355C30.843,16.586 29.712,13.933 27.702,11.975C25.692,10.018 22.966,8.917 20.124,8.914L20.124,6.48C23.629,6.485 26.989,7.843 29.467,10.256C31.946,12.67 33.34,15.941 33.345,19.355L33.345,19.355Z" fill="#DDA046"/>
</svg>
