<svg width="98" height="96" viewBox="0 0 98 96" fill="none" xmlns="http://www.w3.org/2000/svg" xmlns:xlink="http://www.w3.org/1999/xlink">
<path d="M94.239,2.107C94.069,1.608 93.763,1.166 93.355,0.832C92.948,0.497 92.456,0.282 91.933,0.212C91.302,0.136 76.447,-1.683 69.696,6.124C64.043,12.673 66.31,23.29 67.365,27.042C66.045,29.05 62.805,33.692 57.538,40.052C59.824,35.997 61.738,30.818 60.531,25.829C58.081,15.724 44.11,11.429 43.479,11.252C42.98,11.101 42.45,11.091 41.946,11.222C41.442,11.354 40.985,11.622 40.624,11.997C40.188,12.452 29.995,23.366 32.413,33.389C34.832,43.412 48.835,47.789 49.466,47.966C49.73,48.046 50.005,48.086 50.281,48.086C50.373,48.092 50.466,48.092 50.559,48.086C46.416,52.652 41.218,58.02 34.971,63.875C37.144,60.174 38.837,55.614 38.016,51.092C36.159,40.86 22.441,35.77 21.853,35.555C21.358,35.381 20.824,35.348 20.311,35.46C19.798,35.571 19.326,35.823 18.948,36.187C18.487,36.623 7.674,46.924 9.519,57.073C11.237,66.547 23.11,71.599 25.308,72.477C17.599,79.02 9.559,85.163 1.22,90.882C0.725,91.221 0.352,91.71 0.157,92.278C-0.039,92.845 -0.048,93.46 0.131,94.032C0.311,94.605 0.669,95.105 1.154,95.458C1.639,95.812 2.224,96.001 2.824,95.997C3.395,95.998 3.953,95.824 4.422,95.498C13.03,89.586 21.324,83.228 29.268,76.45C29.293,76.564 29.327,76.676 29.369,76.785C29.584,77.366 34.706,90.995 45.007,92.833C45.797,92.976 46.598,93.048 47.401,93.048C56.78,93.048 65.622,83.89 66.026,83.473C66.392,83.097 66.645,82.626 66.757,82.114C66.868,81.602 66.834,81.068 66.658,80.574C66.443,79.993 61.314,66.364 51.013,64.519C47.426,63.888 43.82,64.791 40.63,66.263C45.683,61.488 49.99,57.048 53.603,53.126C55.176,56.284 60.79,66.237 69.702,67.305C70.23,67.367 70.762,67.399 71.293,67.399C80.982,67.399 89.754,57.199 90.14,56.745C90.479,56.346 90.699,55.86 90.776,55.342C90.853,54.824 90.784,54.295 90.576,53.814C90.329,53.252 84.418,39.919 74.028,38.694C70.586,38.284 67.213,39.269 64.232,40.778C68.11,35.934 70.637,32.328 71.906,30.446C72.62,30.49 73.517,30.528 74.54,30.528C79.592,30.528 87.803,29.625 92.338,24.376C99.159,16.488 94.441,2.688 94.239,2.107ZM25.965,66.578C22.213,64.854 15.98,61.02 15.07,56.012C14.161,51.004 18.683,44.644 21.576,41.486C25.321,43.197 31.58,47.025 32.464,52.058C33.348,57.092 28.858,63.408 25.965,66.578ZM49.997,70.046C55.049,70.949 58.902,77.138 60.639,80.858C57.733,83.473 52.264,87.433 47.426,87.433C46.952,87.434 46.479,87.394 46.011,87.313C40.959,86.41 37.106,80.214 35.369,76.5C38.527,73.62 44.843,69.124 49.997,70.046ZM49.403,42.016C45.563,40.519 39.121,37.065 37.896,32.088C36.67,27.111 40.858,20.543 43.58,17.214C47.369,18.711 53.843,22.172 55.043,27.155C56.243,32.138 52.1,38.688 49.403,42.016ZM73.327,44.271C78.418,44.903 82.637,50.833 84.582,54.446C81.563,57.503 75.544,62.353 70.359,61.734C65.274,61.103 61.056,55.166 59.104,51.553C62.129,48.496 68.148,43.646 73.327,44.271ZM88.037,20.719C84.632,24.629 76.902,25.103 72.632,24.875C71.616,20.896 70.668,13.665 74.003,9.806C77.338,5.947 85.112,5.423 89.407,5.682C90.43,9.629 91.371,16.86 88.037,20.719L88.037,20.719Z" fill="#DDA046"/>
</svg>
