<svg width="64" height="66" viewBox="0 0 64 66" fill="none" xmlns="http://www.w3.org/2000/svg" xmlns:xlink="http://www.w3.org/1999/xlink">
<path d="M62.818,31.712C62.818,49.611 48.938,64.121 31.816,64.121C14.694,64.121 0.813,49.611 0.813,31.712C0.813,13.813 14.694,-0.697 31.816,-0.697C48.938,-0.697 62.818,13.813 62.818,31.712Z" fill="#7C509A"/>
<path d="M41.51,16.392C35.602,15.212 29.466,15.212 23.558,16.392C20.945,16.982 17.65,20.284 17.081,22.879C16.059,27.951 16.059,33.141 17.081,38.213C17.763,40.808 21.058,44.11 23.558,44.7C23.671,44.7 23.785,44.818 23.785,44.936L23.785,52.367C23.785,52.721 24.24,52.957 24.467,52.603L27.875,48.946C27.875,48.946 30.602,45.998 31.057,45.526C31.057,45.526 31.17,45.408 31.284,45.408C34.693,45.526 38.215,45.172 41.624,44.582C44.237,43.992 47.532,40.69 48.1,38.095C49.123,33.023 49.123,27.833 48.1,22.761C47.418,20.284 44.123,16.982 41.51,16.392ZM41.624,38.567C41.055,39.746 40.374,40.69 39.238,41.28C38.897,41.398 38.556,41.515 38.215,41.633C37.76,41.515 37.42,41.398 37.079,41.28C33.443,39.746 30.034,37.623 27.307,34.556C25.83,32.787 24.58,30.782 23.558,28.659C23.103,27.597 22.649,26.654 22.308,25.592C21.967,24.648 22.535,23.705 23.103,22.997C23.671,22.289 24.353,21.818 25.149,21.464C25.717,21.11 26.285,21.346 26.739,21.818C27.648,22.997 28.557,24.177 29.239,25.474C29.693,26.3 29.58,27.243 28.784,27.833C28.557,27.951 28.444,28.069 28.216,28.305C28.103,28.423 27.875,28.541 27.762,28.777C27.535,29.131 27.535,29.484 27.648,29.838C28.557,32.551 30.261,34.674 32.875,35.854C33.329,36.09 33.67,36.208 34.238,36.208C35.034,36.09 35.374,35.146 35.943,34.674C36.511,34.202 37.192,34.202 37.874,34.556C38.442,34.91 39.01,35.382 39.692,35.854C40.26,36.326 40.828,36.68 41.396,37.151C41.737,37.387 41.851,37.977 41.624,38.567ZM36.851,29.72C36.624,29.72 36.738,29.72 36.851,29.72C36.397,29.72 36.283,29.484 36.17,29.131C36.17,28.895 36.17,28.541 36.056,28.305C35.943,27.833 35.715,27.361 35.261,27.007C35.034,26.89 34.806,26.772 34.579,26.654C34.238,26.536 34.011,26.536 33.67,26.536C33.329,26.418 33.216,26.182 33.216,25.828C33.216,25.592 33.557,25.356 33.784,25.356C35.602,25.474 36.965,26.536 37.192,28.777C37.192,28.895 37.192,29.131 37.192,29.249C37.192,29.484 37.079,29.72 36.851,29.72ZM35.715,24.531C35.147,24.295 34.579,24.059 33.897,23.941C33.67,23.941 33.329,23.823 33.102,23.823C32.761,23.823 32.534,23.587 32.648,23.233C32.648,22.879 32.875,22.643 33.216,22.761C34.352,22.879 35.374,23.115 36.397,23.587C38.442,24.648 39.578,26.418 39.919,28.777C39.919,28.895 39.919,29.013 39.919,29.131C39.919,29.367 39.919,29.602 39.919,29.956C39.919,30.074 39.919,30.192 39.919,30.31C39.806,30.782 39.01,30.9 38.897,30.31C38.897,30.192 38.783,29.956 38.783,29.838C38.783,28.777 38.556,27.715 38.101,26.772C37.42,25.71 36.624,25.002 35.715,24.531ZM41.851,31.608C41.51,31.608 41.283,31.254 41.283,30.9C41.283,30.192 41.169,29.484 41.055,28.777C40.601,25.002 37.647,21.936 34.125,21.346C33.557,21.228 32.988,21.228 32.534,21.11C32.193,21.11 31.739,21.11 31.625,20.638C31.511,20.284 31.852,19.93 32.193,19.93C32.307,19.93 32.42,19.93 32.42,19.93C37.079,20.048 32.648,19.93 32.42,19.93C37.192,20.048 41.169,23.351 41.964,28.305C42.078,29.131 42.192,29.956 42.192,30.9C42.419,31.254 42.192,31.608 41.851,31.608Z" fill="#FFFFFF"/>
</svg>
