<svg width="40" height="41" viewBox="0 0 40 41" fill="none" xmlns="http://www.w3.org/2000/svg">
<g clip-path="url(#clip0_1_157)">
<rect x="4.96924" y="2.2998" width="30.9735" height="34.3433" fill="white"/>
<path d="M17.5893 29.9679C17.5893 30.017 17.5893 30.0785 17.5621 30.1127C17.3777 30.3506 17.1583 30.5489 16.8704 30.6542C16.6203 30.7455 16.421 30.6341 16.3684 30.3743C16.3473 30.2716 16.3464 30.1636 16.3464 30.0583C16.3456 28.1229 16.3403 24.1548 16.3377 24.1065H14.9096C14.9096 24.1601 14.9079 29.6879 14.9114 30.7324C14.9123 31.015 14.9421 31.2959 15.0597 31.5583C15.1861 31.8427 15.3959 32.0226 15.7083 32.0744C15.9374 32.1139 16.1612 32.0884 16.3789 32.0138C16.8248 31.8602 17.1741 31.5706 17.4822 31.223C17.5094 31.1923 17.5384 31.1624 17.5901 31.1071V31.9743H19.0217V28.18C19.0217 26.8652 19.0217 24.0942 19.0217 24.0942L17.5893 24.0977V29.9679Z" fill="url(#paint0_linear_1_157)"/>
<path d="M24.357 24.7215C24.0551 24.0782 23.4205 23.9079 22.8702 24.0457C22.5366 24.1299 22.2663 24.3222 22.0442 24.5706C21.9705 24.6539 21.8897 24.8154 21.8897 24.8154C21.8897 24.8154 21.8897 22.4395 21.8897 21.3037H20.4556V31.9723H21.8897V31.3737C21.8897 31.3737 21.9916 31.4816 22.0284 31.5211C22.3576 31.8784 22.7569 32.0741 23.2493 32.0785C23.8549 32.0846 24.2762 31.7915 24.4676 31.2157C24.5562 30.948 24.5852 30.6724 24.5861 30.3933C24.5878 28.9021 24.5878 27.4108 24.5852 25.9196C24.5852 25.5071 24.5352 25.1017 24.357 24.7215ZM23.1089 30.2152C23.1089 30.2951 23.0992 30.3758 23.0826 30.4539C23.0167 30.7664 22.7789 30.9068 22.4418 30.8375C22.2373 30.7954 22.0776 30.6778 21.9407 30.5294C21.9345 30.5224 21.8941 30.468 21.8941 30.468V30.3512L21.8906 25.6142C21.8906 25.6142 21.9213 25.5265 21.9889 25.4677C22.1574 25.3184 22.3435 25.2245 22.5761 25.2474C22.7745 25.2667 22.9325 25.3579 23.0062 25.5414C23.0615 25.6809 23.1054 25.8363 23.1063 25.9855C23.1133 27.395 23.1106 28.8046 23.1089 30.2152Z" fill="url(#paint1_linear_1_157)"/>
<path d="M19.2002 15.4229C19.5346 15.4229 19.8066 15.1509 19.8066 14.8165V10.5376C19.8066 10.2032 19.5345 9.93115 19.2002 9.93115C18.8658 9.93115 18.5938 10.2032 18.5938 10.5376V14.8165C18.5937 15.1508 18.8658 15.4229 19.2002 15.4229Z" fill="url(#paint2_linear_1_157)"/>
<path d="M14.9132 21.3047H9.94531V22.8336H11.6191V31.9733H13.2358V22.8301H14.9132V21.3047Z" fill="url(#paint3_linear_1_157)"/>
<path d="M28.4544 29.1766V30.1886C28.4544 30.5423 28.1682 30.8284 27.8154 30.8284C27.4617 30.8284 27.1755 30.5423 27.1755 30.1886V28.2198H29.9219C29.9219 28.2198 29.9377 26.8462 29.9263 26.2231C29.9219 25.9571 29.9017 25.6877 29.8473 25.4278C29.7051 24.7538 29.3426 24.2456 28.6641 24.0226C28.4649 23.9568 28.2507 23.9226 28.041 23.9094C27.3432 23.8646 26.7323 24.0639 26.2548 24.5984C25.8361 25.0662 25.6904 25.6297 25.6896 26.2406C25.6869 27.4088 25.6817 28.578 25.6931 29.7462C25.6966 30.0437 25.7299 30.3474 25.7975 30.6371C25.9432 31.2594 26.2829 31.7482 26.8824 32.0186C27.3204 32.2169 27.7829 32.2266 28.2498 32.1581C29.0029 32.0475 29.5164 31.6438 29.7648 30.9162C29.9517 30.3711 29.9298 29.1766 29.9298 29.1766H28.4544ZM27.1755 25.894C27.1755 25.5412 27.4617 25.2542 27.8154 25.2542C28.1682 25.2542 28.4544 25.5412 28.4544 25.894V26.999H27.1755V25.894Z" fill="url(#paint4_linear_1_157)"/>
<path d="M0 0.379883V40.3799H40V0.379883H0ZM22.5339 8.71726H23.9906V14.7578C23.9906 14.8378 23.997 14.9187 24.011 14.9972C24.0552 15.2461 24.2392 15.3633 24.4789 15.2802C24.7711 15.1791 24.9941 14.9767 25.1832 14.7384C25.21 14.7043 25.2051 14.6408 25.2051 14.5908V8.71726H26.6724L26.672 16.6381H25.2043L25.2061 15.7871C25.0438 15.947 24.9053 16.0963 24.7531 16.2304C24.4833 16.4681 24.1777 16.6453 23.8202 16.7152C23.2714 16.8225 22.8039 16.649 22.6289 16.0806C22.5706 15.8913 22.5354 15.6872 22.5339 15.4896V8.71726ZM19.2002 8.51898C20.3609 8.51898 21.3018 9.45989 21.3018 10.6206V14.7334C21.3018 15.8941 20.3609 16.835 19.2002 16.835C18.0395 16.835 17.0986 15.8941 17.0986 14.7334V10.6206C17.0985 9.45989 18.0394 8.51898 19.2002 8.51898ZM13.5469 5.9156C13.5469 5.9156 14.2144 8.7507 14.533 10.0937H14.5335C14.8521 8.7507 15.5196 5.9156 15.5196 5.9156H17.1898C17.1898 5.9156 15.9066 10.1714 15.3327 12.0693C15.312 12.1379 15.3026 12.2125 15.3026 12.2844L15.3033 16.6364H13.7632L13.7638 12.2844C13.7638 12.2125 13.7543 12.138 13.7337 12.0693C13.1599 10.1714 11.8767 5.9156 11.8767 5.9156H13.5469ZM31.9117 31.1757C31.9117 33.1224 30.3564 34.7129 28.4105 34.7541C22.8046 34.8744 17.196 34.8744 11.5892 34.7541C9.6442 34.7129 8.08889 33.1224 8.08889 31.1757V22.4196C8.08889 20.4738 9.6442 18.8833 11.5892 18.8421C17.196 18.7218 22.8046 18.7218 28.4105 18.8421C30.3564 18.8833 31.9117 20.4738 31.9117 22.4196V31.1757Z" fill="url(#paint5_linear_1_157)"/>
</g>
<defs>
<linearGradient id="paint0_linear_1_157" x1="16.9654" y1="24.0942" x2="16.9654" y2="32.0929" gradientUnits="userSpaceOnUse">
<stop stop-color="#E32828"/>
<stop offset="1" stop-color="#AE0000"/>
</linearGradient>
<linearGradient id="paint1_linear_1_157" x1="22.5214" y1="21.3037" x2="22.5214" y2="32.0786" gradientUnits="userSpaceOnUse">
<stop stop-color="#E32828"/>
<stop offset="1" stop-color="#AE0000"/>
</linearGradient>
<linearGradient id="paint2_linear_1_157" x1="19.2002" y1="9.93115" x2="19.2002" y2="15.4229" gradientUnits="userSpaceOnUse">
<stop stop-color="#E32828"/>
<stop offset="1" stop-color="#AE0000"/>
</linearGradient>
<linearGradient id="paint3_linear_1_157" x1="12.4292" y1="21.3047" x2="12.4292" y2="31.9733" gradientUnits="userSpaceOnUse">
<stop stop-color="#E32828"/>
<stop offset="1" stop-color="#AE0000"/>
</linearGradient>
<linearGradient id="paint4_linear_1_157" x1="27.8083" y1="23.9033" x2="27.8083" y2="32.1966" gradientUnits="userSpaceOnUse">
<stop stop-color="#E32828"/>
<stop offset="1" stop-color="#AE0000"/>
</linearGradient>
<linearGradient id="paint5_linear_1_157" x1="20" y1="0.379883" x2="20" y2="40.3799" gradientUnits="userSpaceOnUse">
<stop stop-color="#E32828"/>
<stop offset="1" stop-color="#AE0000"/>
</linearGradient>
<clipPath id="clip0_1_157">
<rect y="0.379883" width="40" height="40" rx="20" fill="white"/>
</clipPath>
</defs>
</svg>
